 <svg  version="1.0" xmlns="http://www.w3.org/2000/svg"  width="24.000000pt" height="24.000000pt" viewBox="0 0 24.000000 24.000000"  preserveAspectRatio="xMidYMid meet">  <g transform="translate(0.000000,24.000000) scale(0.100000,-0.100000)" fill="#1976d2" stroke="none"> <path d="M30 215 c-15 -18 -10 -45 13 -59 34 -22 73 27 47 59 -16 19 -44 19 -60 0z m46 -16 c10 -17 -13 -36 -27 -22 -12 12 -4 33 11 33 5 0 12 -5 16 -11z"/> <path d="M132 178 c-7 -7 -12 -18 -12 -25 0 -7 -6 -13 -14 -13 -8 0 -28 -11 -44 -25 -17 -14 -35 -25 -41 -25 -19 0 -12 -15 22 -48 37 -36 47 -39 47 -17 0 10 11 15 35 15 37 0 105 49 105 77 0 20 -51 73 -70 73 -9 0 -21 -5 -28 -12z m44 -19 c10 -17 -13 -36 -27 -22 -12 12 -4 33 11 33 5 0 12 -5 16 -11z m34 -38 c0 -19 -66 -58 -107 -65 -52 -8 -63 7 -32 40 22 24 69 33 69 14 0 -5 -9 -10 -20 -10 -11 0 -20 -4 -20 -10 0 -19 39 -10 67 15 30 26 43 31 43 16z"/> </g> </svg> 